<?xml version="1.0" encoding="UTF-8"?>
<svg version="1.1" xmlns="http://www.w3.org/2000/svg" width="512" height="512">
<path d="M0 0 C10.40707158 8.43265776 18.26011726 17.87481072 25.68945312 28.9140625 C23.29602594 31.60852173 20.82129074 33.02878382 17.60351562 34.62109375 C16.09180786 35.37374512 16.09180786 35.37374512 14.54956055 36.14160156 C13.4819751 36.66463867 12.41438965 37.18767578 11.31445312 37.7265625 C10.23204346 38.26120117 9.14963379 38.79583984 8.03442383 39.34667969 C4.92372069 40.87811713 1.80813334 42.398946 -1.31054688 43.9140625 C-2.47432861 44.48036377 -2.47432861 44.48036377 -3.66162109 45.05810547 C-13.70114845 49.9140625 -13.70114845 49.9140625 -17.31054688 49.9140625 C-19.09960938 48.26953125 -19.09960938 48.26953125 -20.93554688 46.1015625 C-21.85207031 45.04001953 -21.85207031 45.04001953 -22.78710938 43.95703125 C-24.31054688 41.9140625 -24.31054688 41.9140625 -25.31054688 38.9140625 C-27.08271974 37.89401739 -27.08271974 37.89401739 -29.31054688 36.9140625 C-31.25003186 35.64626063 -33.18727772 34.37503076 -35.12304688 33.1015625 C-50.74229377 23.19376406 -68.36451897 20.85972212 -86.33007812 24.7421875 C-103.51339023 29.36534717 -118.04415267 40.73788111 -126.89257812 56.0625 C-135.41940335 73.21010996 -137.00510292 91.88758811 -130.98632812 110.0546875 C-125.31219747 125.66674642 -113.73233197 138.17654575 -98.95898438 145.59765625 C-81.60372366 153.48125507 -64.2962315 153.8784193 -46.31054688 147.9140625 C-34.46837716 143.21059204 -25.24887567 135.7975447 -17.31054688 125.9140625 C-3.29075564 132.5395181 10.70467897 139.21502931 24.68945312 145.9140625 C16.9441578 166.26901189 -6.14890491 181.577303 -25.10327148 190.28491211 C-52.62385206 202.43403415 -83.63729831 202.22725791 -111.54052734 191.66259766 C-140.05360751 180.44424147 -161.14923293 158.7743998 -173.31054688 130.9140625 C-184.84084981 103.25935156 -185.30914383 72.49880212 -173.88549805 44.73095703 C-169.48355154 34.47872067 -163.77936093 25.48851294 -156.79101562 16.7890625 C-155.55370068 15.22201455 -154.41808573 13.57537078 -153.31054688 11.9140625 C-152.65054687 11.9140625 -151.99054688 11.9140625 -151.31054688 11.9140625 C-151.31054688 11.2540625 -151.31054688 10.5940625 -151.31054688 9.9140625 C-150.65054687 9.9140625 -149.99054688 9.9140625 -149.31054688 9.9140625 C-149.11074219 9.36234375 -148.9109375 8.810625 -148.70507812 8.2421875 C-146.74831904 4.97544125 -143.9787034 2.94470425 -140.99804688 0.6640625 C-140.36995117 0.18098633 -139.74185547 -0.30208984 -139.09472656 -0.79980469 C-97.58931417 -32.2571966 -41.07342632 -32.22608178 0 0 Z " fill="#272324" transform="translate(442.310546875,161.0859375)"/>
<path d="M0 0 C1.60214689 0.03157977 3.2043679 0.05961085 4.80664062 0.08398438 C16.44198393 0.31698393 16.44198393 0.31698393 17.6875 1.5625 C20.6087563 32.09028331 20.6087563 32.09028331 13.5 41.0625 C12.10153706 42.44126628 10.70030187 43.8200391 9.22753906 45.11914062 C6.27503946 47.8862899 3.88101661 51.14589212 1.375 54.3125 C0.26538744 55.67274407 -0.84529979 57.03211216 -1.95703125 58.390625 C-5.89194755 63.24730544 -9.66209876 68.22460388 -13.43676758 73.20605469 C-17.65142703 78.74796161 -22.01387526 84.15298222 -26.4309082 89.53417969 C-30.39410163 94.38199851 -34.21902735 99.3216161 -38 104.3125 C-42.42922273 110.15865417 -46.99423242 115.82102687 -51.73046875 121.421875 C-55.4025231 125.8289133 -58.82201537 130.43256029 -62.28515625 135.00390625 C-66.03490116 139.9363978 -69.88160114 144.77344299 -73.8125 149.5625 C-81.57685552 159.02689801 -88.96832922 168.77027229 -96.3125 178.5625 C-57.7025 178.5625 -19.0925 178.5625 20.6875 178.5625 C20.6875 193.4125 20.6875 208.2625 20.6875 223.5625 C-41.0225 223.5625 -102.7325 223.5625 -166.3125 223.5625 C-166.3125 180.5625 -166.3125 180.5625 -157.3125 170.5625 C-155.50803545 168.32722877 -153.73688576 166.09672371 -152 163.8125 C-147.71261092 158.26550874 -143.24623472 152.91028735 -138.65966797 147.60913086 C-134.10651087 142.34356999 -129.69517459 136.97073647 -125.3125 131.5625 C-120.58030312 125.73891357 -115.80824683 119.95783944 -110.9375 114.25 C-107.1366098 109.79165853 -103.46662258 105.25331306 -99.875 100.625 C-95.62059386 95.14611782 -91.19382521 89.84869912 -86.65478516 84.60400391 C-82.88644944 80.24782251 -79.22408688 75.81590413 -75.59375 71.34375 C-73.01407196 68.19866307 -70.3862186 65.09766951 -67.75 62 C-64.56332276 58.25398826 -61.42458863 54.48443789 -58.375 50.625 C-54.62097956 45.88429656 -50.68689923 41.31362448 -46.73681641 36.73681641 C-43.1840267 32.60929421 -39.75281761 28.40440561 -36.37890625 24.12890625 C-33.44220637 20.48162493 -30.40107187 16.92499434 -27.34350586 13.37866211 C-26.9078833 12.86956299 -26.47226074 12.36046387 -26.0234375 11.8359375 C-25.56767334 11.32184326 -25.11190918 10.80774902 -24.64233398 10.27807617 C-23.22653272 8.5701597 -23.22653272 8.5701597 -22.25024414 6.40356445 C-17.59985132 -2.19885242 -8.52614263 -0.34250987 0 0 Z " fill="#272324" transform="translate(219.3125,136.4375)"/>
<path d="M0 0 C38.28 0 76.56 0 116 0 C116 13.74690901 112.37035348 22.85123157 103 33 C93.998358 40.83058199 84.18745156 45.16266036 72.30981445 45.12939453 C71.54030457 45.13114685 70.77079468 45.13289917 69.97796631 45.13470459 C67.43971489 45.13909879 64.90153335 45.13619454 62.36328125 45.1328125 C60.60019416 45.13348603 58.83710716 45.13445647 57.07402039 45.13571167 C53.38291538 45.13718517 49.69183461 45.13504446 46.00073242 45.13037109 C41.25908396 45.12466146 36.51749194 45.1279628 31.77584553 45.13394356 C28.13772655 45.13754785 24.49962107 45.13641141 20.86150169 45.13381577 C19.1123167 45.13314678 17.3631305 45.13397393 15.61394691 45.13629532 C13.17659857 45.13882104 10.73934332 45.134983 8.30200195 45.12939453 C7.20875862 45.13243088 7.20875862 45.13243088 6.09342957 45.13552856 C1.11426534 45.11426534 1.11426534 45.11426534 0 44 C0 29.48 0 14.96 0 0 Z " fill="#ED3B2C" transform="translate(56,135)"/>
<path d="M0 0 C0.66 0.33 1.32 0.66 2 1 C-2.95 5.95 -7.9 10.9 -13 16 C-13.66 15.67 -14.32 15.34 -15 15 C-14.34 14.01 -13.68 13.02 -13 12 C-12.34 12 -11.68 12 -11 12 C-11 11.34 -11 10.68 -11 10 C-10.34 10 -9.68 10 -9 10 C-8.74476563 9.40703125 -8.48953125 8.8140625 -8.2265625 8.203125 C-6.88183502 5.78775462 -5.50785633 4.48788294 -3.375 2.75 C-2.74335938 2.22921875 -2.11171875 1.7084375 -1.4609375 1.171875 C-0.73777344 0.59179688 -0.73777344 0.59179688 0 0 Z " fill="#5D5A5B" transform="translate(302,161)"/>
</svg>
