<?xml version="1.0" encoding="UTF-8"?>
<svg version="1.1" xmlns="http://www.w3.org/2000/svg" width="1947" height="423">
<path d="M0 0 C119.91202346 0 119.91202346 0 150 30 C150.71671875 30.69351563 151.4334375 31.38703125 152.171875 32.1015625 C168.60968672 49.13113544 176.43207724 73.41776915 176.3125 96.6875 C176.30686035 97.83653809 176.3012207 98.98557617 176.29541016 100.16943359 C175.91722194 126.69877533 165.42836846 148.75587745 147.375 168 C128.96703732 185.72883396 104.9814631 195.1866394 79.53125 195.1328125 C77.98685242 195.13424759 77.98685242 195.13424759 76.41125488 195.13571167 C74.21573832 195.13639177 72.02021973 195.13454935 69.82470703 195.13037109 C66.62136676 195.12519607 63.41817859 195.13022719 60.21484375 195.13671875 C40.11768228 195.12463387 20.11108268 194.51566879 0 194 C0 129.98 0 65.96 0 0 Z M43 36 C43 76.26 43 116.52 43 158 C82.97057028 158.57680286 82.97057028 158.57680286 114.8125 138.625 C127.08589555 125.80466169 131.47237204 109.85432109 131.20703125 92.57421875 C130.69379827 77.21816215 123.64179247 63.37749493 112.90234375 52.62890625 C108.6077553 48.73892237 104.0710258 45.77309552 99 43 C98.33613281 42.60296875 97.67226563 42.2059375 96.98828125 41.796875 C80.77025648 32.68486108 60.36088879 36 43 36 Z " fill="#231F20" transform="translate(421,84)"/>
<path d="M0 0 C16.190625 -0.0825 32.38125 -0.165 49.0625 -0.25 C54.14664307 -0.28641602 59.23078613 -0.32283203 64.46899414 -0.36035156 C70.74890137 -0.37841797 70.74890137 -0.37841797 73.70262146 -0.3817749 C75.7353314 -0.38785756 77.76802828 -0.4017998 79.80064392 -0.42230225 C101.5454816 -0.63038782 118.36943919 2.2563417 134.81640625 17.80859375 C148.14277744 31.18264426 154.86112242 47.44571134 155.03125 66.5 C154.22594038 84.53893555 147.50132058 100.0178594 135 113 C115.52723767 130.318213 94.79040956 131.47254068 70.0625 131.1875 C58.6465625 131.0946875 58.6465625 131.0946875 47 131 C47 152.12 47 173.24 47 195 C31.49 195 15.98 195 0 195 C0 130.65 0 66.3 0 0 Z M47 36 C47 55.14 47 74.28 47 94 C53.55875 94.0825 60.1175 94.165 66.875 94.25 C68.92444824 94.28641602 70.97389648 94.32283203 73.08544922 94.36035156 C86.01646042 94.49627545 95.37046651 93.48556116 105.0859375 84.19921875 C110.30726418 78.20002096 112.28312995 70.88045039 112 63 C110.75040557 54.39702296 107.55981375 47.92213865 100.9609375 42.24609375 C90.28364735 34.4173386 77.50458928 35.75006403 64.875 35.875 C58.97625 35.91625 53.0775 35.9575 47 36 Z " fill="#231F20" transform="translate(1133,84)"/>
<path d="M0 0 C1.09828125 0.37253906 2.1965625 0.74507813 3.328125 1.12890625 C21.74504669 8.04730484 40.97512412 23.28296257 50 41 C50 41.66 50 42.32 50 43 C45.53814457 45.26808761 41.07235586 47.52816406 36.6027832 49.78100586 C35.08377958 50.54803711 33.56586135 51.31722185 32.04907227 52.08862305 C29.86498295 53.19892214 27.67706971 54.30134323 25.48828125 55.40234375 C24.81412674 55.74716293 24.13997223 56.09198212 23.44538879 56.44725037 C16.80344371 59.76939818 16.80344371 59.76939818 13 60 C11.0531797 58.20388142 9.5604453 56.55609017 7.9375 54.5 C-1.50465491 43.45142323 -14.0879676 37.97655257 -28.4375 36.125 C-43.55668285 35.22269069 -58.07639065 39.75100635 -70 49 C-80.90757663 58.8375801 -88.54997798 71.96383709 -89.37109375 86.84765625 C-89.7258968 101.98015054 -87.77212721 114.83137493 -78 127 C-77.43796875 127.74636719 -76.8759375 128.49273437 -76.296875 129.26171875 C-66.89710818 140.89294282 -53.24389004 146.95032365 -38.625 148.875 C-21.99940276 149.84301148 -7.56526949 144.77304453 5 134 C7.49518876 131.4483 9.80676976 128.81452072 12 126 C24.7269608 130.67854857 36.9016027 136.90927367 49 143 C46.01163386 156.63712735 30.9725209 167.68498606 20 175 C19.09765625 175.6084375 18.1953125 176.216875 17.265625 176.84375 C-3.27774704 189.78266941 -30.46192128 193.66031116 -54.12329102 188.87084961 C-57.47121804 188.06663438 -60.73656825 187.09536482 -64 186 C-64.9590625 185.68651611 -64.9590625 185.68651611 -65.9375 185.36669922 C-80.21104685 180.56448525 -92.34615005 172.63570029 -103 162 C-104.11955078 160.89785156 -104.11955078 160.89785156 -105.26171875 159.7734375 C-116.10130135 148.46092372 -123.52846512 134.94343275 -128 120 C-128.33902344 118.88109375 -128.67804687 117.7621875 -129.02734375 116.609375 C-135.09288375 92.12360063 -131.69721678 64.98568547 -118.94775391 43.20214844 C-105.8165377 22.11889 -87.45014476 7.04454283 -64 -1 C-62.84886719 -1.41507812 -61.69773437 -1.83015625 -60.51171875 -2.2578125 C-41.16090283 -8.20231664 -18.9039168 -6.82964584 0 0 Z " fill="#231F20" transform="translate(847,89)"/>
<path d="M0 0 C0.83272934 0.00222061 1.66545868 0.00444122 2.52342224 0.00672913 C3.46432205 0.00680466 4.40522186 0.00688019 5.37463379 0.00695801 C6.39754013 0.01211929 7.42044647 0.01728058 8.47434998 0.02259827 C9.51614914 0.02401321 10.5579483 0.02542816 11.63131714 0.02688599 C14.97355467 0.03250372 18.31572629 0.04505922 21.65794373 0.05775452 C23.91770839 0.06276723 26.17747409 0.06733053 28.4372406 0.07142639 C33.98999837 0.08247891 39.54271426 0.09963051 45.09544373 0.12025452 C48.39560235 7.23713127 51.48898579 14.40085439 54.37229919 21.69593811 C54.76833847 22.69149719 55.16437775 23.68705627 55.57241821 24.71278381 C56.87164029 27.98043891 58.16710048 31.24957187 59.46263123 34.51869202 C60.38334893 36.835827 61.30434445 39.15285161 62.2256012 41.46977234 C64.40525525 46.95300696 66.58269701 52.43711544 68.75886261 57.92173541 C73.30217015 69.37222319 77.85020097 80.82083441 82.40013123 92.26869202 C82.86388845 93.43576187 83.32764568 94.60283173 83.80545616 95.80526733 C91.07617393 114.09814702 98.4231469 132.35852109 105.84614658 150.59008217 C108.9927539 158.31975459 112.10916846 166.06145255 115.20848083 173.81019592 C116.08756842 176.00674346 116.96949106 178.20214321 117.8513031 180.39759827 C118.4211297 181.82070924 118.99079925 183.24388311 119.56028748 184.66712952 C119.81946457 185.31147949 120.07864166 185.95582947 120.34567261 186.6197052 C122.09544373 191.00574139 122.09544373 191.00574139 122.09544373 192.12025452 C105.59544373 192.12025452 89.09544373 192.12025452 72.09544373 192.12025452 C70.69294373 188.16669983 69.29044373 184.21314514 67.84544373 180.13978577 C66.18154208 175.44967498 64.51756478 170.75959103 62.85355377 166.06951904 C62.34895612 164.64728969 61.84436321 163.22505866 61.33977509 161.80282593 C55.04723885 144.06673665 48.75081514 126.33205061 42.44212341 108.60169983 C40.55192729 103.28825404 38.66348664 97.97418418 36.77531433 92.66001892 C35.27050174 88.42506098 33.76461814 84.1904896 32.25657654 79.9566803 C30.80176567 75.8720059 29.34994913 71.7862797 27.9004364 67.69972229 C27.36993377 66.20575543 26.83834341 64.71217431 26.30558777 63.2190094 C25.58681123 61.20403205 24.87187809 59.18773286 24.15794373 57.17103577 C23.75704529 56.04350891 23.35614685 54.91598206 22.94309998 53.75428772 C22.09544373 51.12025452 22.09544373 51.12025452 22.09544373 49.12025452 C20.44544373 49.12025452 18.79544373 49.12025452 17.09544373 49.12025452 C16.92274963 49.71537338 16.75005554 50.31049225 16.5721283 50.92364502 C14.67370252 57.3694109 12.55328578 63.71146445 10.31419373 70.04603577 C9.94821075 71.08687317 9.58222778 72.12771057 9.20515442 73.2000885 C8.00446546 76.61188088 6.80013428 80.02237321 5.59544373 83.43275452 C4.75053196 85.82947512 3.90564301 88.22620377 3.06077576 90.62294006 C-5.105291 113.76627243 -13.3744795 136.87276317 -21.69068909 159.96253967 C-23.27589771 164.36572838 -24.85155277 168.77223451 -26.42311096 173.18031311 C-26.83672882 174.33742294 -27.25034668 175.49453278 -27.67649841 176.68670654 C-28.4760518 178.92370635 -29.27343481 181.16148337 -30.06840515 183.40011597 C-30.42538483 184.3972612 -30.7823645 185.39440643 -31.15016174 186.42176819 C-31.46548859 187.30676498 -31.78081543 188.19176178 -32.10569763 189.10357666 C-32.90455627 191.12025452 -32.90455627 191.12025452 -33.90455627 192.12025452 C-35.34745414 192.21321267 -36.79485412 192.23771965 -38.24073792 192.23377991 C-39.6220565 192.23366661 -39.6220565 192.23366661 -41.03128052 192.23355103 C-42.03231308 192.22838974 -43.03334564 192.22322845 -44.06471252 192.21791077 C-45.08431564 192.21649582 -46.10391876 192.21508087 -47.15441895 192.21362305 C-50.42532735 192.20800548 -53.69616841 192.19545002 -56.96705627 192.18275452 C-59.17864383 192.17774178 -61.39023246 192.17317848 -63.6018219 192.16908264 C-69.03608984 192.15803035 -74.47031825 192.14127515 -79.90455627 192.12025452 C-79.30517532 187.4330509 -78.0041178 183.54887592 -76.15846252 179.20619202 C-75.87619812 178.53606583 -75.59393372 177.86593964 -75.30311584 177.17550659 C-74.68782363 175.7162643 -74.06968057 174.25822151 -73.44902039 172.80125427 C-71.73300285 168.77143693 -70.03934705 164.73220468 -68.34205627 160.69447327 C-67.80174522 159.41154137 -67.80174522 159.41154137 -67.2505188 158.10269165 C-63.08507528 148.20008746 -59.02537911 138.25461992 -54.96705627 128.30775452 C-54.20305778 126.43687212 -53.43897875 124.56602261 -52.67481995 122.69520569 C-51.53178517 119.89674754 -50.38880666 117.09826661 -49.24615479 114.2996521 C-45.4343449 104.96475359 -41.60821637 95.63575199 -37.77955627 86.30775452 C-37.12443597 84.71132292 -36.46932526 83.11488739 -35.81422424 81.51844788 C-33.15428872 75.03669693 -30.49370529 68.55521204 -27.83277893 62.0738678 C-26.09385862 57.83828833 -24.3552479 53.60258189 -22.61680603 49.36680603 C-21.93872917 47.71483803 -21.26052875 46.06292073 -20.5821991 44.41105652 C-17.20311681 36.18221882 -13.8302634 27.95107537 -10.49049377 19.70619202 C-10.22873856 19.06065369 -9.96698334 18.41511536 -9.69729614 17.75001526 C-8.49126169 14.77543216 -7.28773483 11.7998893 -6.08888245 8.82240295 C-5.67871887 7.80952209 -5.2685553 6.79664124 -4.84596252 5.75306702 C-4.49219543 4.87537659 -4.13842834 3.99768616 -3.77394104 3.09339905 C-2.47995525 0.15658546 -2.47995525 0.15658546 0 0 Z " fill="#231F20" transform="translate(1639.904556274414,83.87974548339844)"/>
<path d="M0 0 C1.46146512 0.04519995 2.92306466 0.08625498 4.38476562 0.12304688 C7.94682703 0.22168001 11.50380013 0.37663807 15.0625 0.5625 C17.43287523 29.28752057 17.43287523 29.28752057 11.07299805 37.53125 C8.76827649 40.03380315 6.38084922 42.41617689 3.89697266 44.74072266 C0.73440869 47.88140037 -1.80422986 51.47815891 -4.4375 55.0625 C-9.22675408 61.40238804 -14.16721551 67.60088333 -19.19873047 73.74951172 C-24.081225 79.71930306 -28.85224968 85.77125397 -33.59912109 91.84912109 C-40.16761465 100.25803896 -46.77974794 108.6298353 -53.45458984 116.95458984 C-58.1920771 122.86840759 -62.87505509 128.82407755 -67.54785156 134.7890625 C-69.98784101 137.90292114 -72.43144592 141.01393846 -74.875 144.125 C-75.32367432 144.69677979 -75.77234863 145.26855957 -76.23461914 145.85766602 C-78.785743 149.10643433 -81.35692825 152.33678531 -83.9375 155.5625 C-50.2775 155.5625 -16.6175 155.5625 18.0625 155.5625 C18.0625 168.7625 18.0625 181.9625 18.0625 195.5625 C-35.7275 195.5625 -89.5175 195.5625 -144.9375 195.5625 C-144.9375 156.5625 -144.9375 156.5625 -132.9375 142.5625 C-129.95548948 138.84729254 -129.95548948 138.84729254 -126.9921875 135.1171875 C-124.54561575 132.07525228 -122.02916252 129.09831659 -119.5 126.125 C-114.5717609 120.33010852 -109.7358991 114.46556652 -104.9375 108.5625 C-99.69960656 102.11876059 -94.4036975 95.73233338 -89.02832031 89.40332031 C-84.5969004 84.17802812 -80.25905158 78.87894115 -75.9375 73.5625 C-71.20433775 67.73968889 -66.43333427 61.95779452 -61.5625 56.25 C-57.7796847 51.81388512 -54.13217742 47.29649975 -50.5625 42.6875 C-46.10949261 36.94546416 -41.43034815 31.43877719 -36.64648438 25.97070312 C-28.46252423 17.10615262 -28.46252423 17.10615262 -21.68432617 7.26098633 C-16.34607328 -1.52782199 -9.1931463 -0.49454503 0 0 Z " fill="#231F20" transform="translate(171.9375,83.4375)"/>
<path d="M0 0 C15.18 0 30.36 0 46 0 C46 64.35 46 128.7 46 195 C30.82 195 15.64 195 0 195 C0 130.65 0 66.3 0 0 Z " fill="#231F20" transform="translate(1327,84)"/>
<path d="M0 0 C5.73508382 3.95113493 8.2371623 8.48763441 11.265625 14.6640625 C11.74392761 15.61074799 12.22223022 16.55743347 12.71502686 17.5328064 C14.23973566 20.55718757 15.74536252 23.59059136 17.25 26.625 C18.24478475 28.61003154 19.24086773 30.59441303 20.23828125 32.578125 C21.72205954 35.52915535 23.20510201 38.48051317 24.68327332 41.43435669 C28.57012664 49.19139425 32.58552476 56.87432318 36.64599609 64.54150391 C40.01656691 70.90948075 43.30208038 77.32098528 46.58898926 83.73242188 C48.52456523 87.50764461 50.4636507 91.28106481 52.40234375 95.0546875 C52.79148956 95.81231384 53.18063538 96.56994019 53.58157349 97.3505249 C59.09437298 108.08070502 64.64101219 118.79335179 70.18994141 129.50488281 C71.73438649 132.48711587 73.27766591 135.46994584 74.82028198 138.453125 C76.35857488 141.42748705 77.89810576 144.4012078 79.4375 147.375 C80.01822266 148.4980957 80.59894531 149.62119141 81.19726562 150.77832031 C83.62432911 155.46269313 86.05922577 160.13979478 88.58203125 164.7734375 C89.14289429 165.80525146 89.14289429 165.80525146 89.71508789 166.85791016 C90.6518984 168.57064464 91.5988043 170.27784774 92.546875 171.984375 C94.81213403 176.68539643 96.2319749 180.47927564 95.4375 185.6875 C93.76377981 189.54433348 92.53322011 190.76813589 89 193 C86.30549059 193.38726725 84.0221192 193.54589019 81.33312988 193.5146637 C80.5687613 193.52160922 79.80439271 193.52855475 79.01686144 193.53571075 C76.45951053 193.55398487 73.90308687 193.54371575 71.34570312 193.53344727 C69.51073004 193.5405055 67.67576278 193.54925012 65.84080505 193.55955505 C60.85942402 193.58206819 55.87836042 193.57910501 50.89694786 193.57023358 C46.73919212 193.56512618 42.58149617 193.57241416 38.42374659 193.57970566 C28.61659178 193.59671041 18.80959255 193.59313254 9.00244141 193.57641602 C-1.11844218 193.55948795 -11.23889468 193.57533741 -21.3597312 193.6076389 C-30.04776882 193.63431798 -38.73567211 193.64161552 -47.42374659 193.63312382 C-52.6134412 193.62819044 -57.80287632 193.63043263 -62.99253845 193.65091133 C-67.8715301 193.66924239 -72.74990048 193.66334131 -77.62885857 193.63871193 C-79.41992316 193.63369613 -81.21103488 193.63721373 -83.00206184 193.64986038 C-85.44646858 193.66575598 -87.88882065 193.65087562 -90.33312988 193.62818909 C-91.04276241 193.64002482 -91.75239493 193.65186054 -92.48353148 193.66405493 C-96.35423602 193.59101153 -97.89188366 193.08949258 -100.91667938 190.58573818 C-103.69224624 187.14081035 -104.4639792 184.95298604 -104.39746094 180.47509766 C-103.53779358 175.12171455 -100.63284039 170.43055168 -98.125 165.6875 C-97.22817505 163.94521118 -97.22817505 163.94521118 -96.31323242 162.16772461 C-94.55882956 158.76946387 -92.78332383 155.38315453 -91 152 C-90.18078013 150.43500546 -89.36174119 148.86991617 -88.54296875 147.3046875 C-87.4177437 145.16057141 -86.28911107 143.01843755 -85.15380859 140.87963867 C-80.77561918 132.62605545 -76.51693047 124.31144102 -72.25 116 C-65.1089524 102.09348766 -57.93162182 88.20652646 -50.72851562 74.33203125 C-47.98306496 69.03967098 -45.24398398 63.74402157 -42.50543213 58.4480896 C-41.56895152 56.63747354 -40.63194977 54.82712804 -39.69482422 53.0168457 C-36.77281859 47.37097286 -33.85540908 41.72284638 -30.95271301 36.0670166 C-29.60657578 33.44481477 -28.25795779 30.82389248 -26.90914917 28.20306396 C-26.27308576 26.96545825 -25.63821207 25.72724018 -25.00466919 24.48834229 C-22.05786086 18.72643098 -19.07200029 12.98537092 -15.87890625 7.35546875 C-15.22450562 6.19567505 -15.22450562 6.19567505 -14.55688477 5.01245117 C-10.98633152 0.39710377 -5.68562673 -1.56277624 0 0 Z M-5 17 C-5.57331055 18.12156494 -6.14662109 19.24312988 -6.73730469 20.39868164 C-26.08765026 58.24702339 -26.08765026 58.24702339 -35.125 75.5 C-38.56555102 82.07096786 -41.96993242 88.66060358 -45.375 95.25 C-46.65620688 97.72918895 -47.93744377 100.20836239 -49.21875 102.6875 C-49.53565796 103.30069092 -49.85256592 103.91388184 -50.17907715 104.5456543 C-52.83896971 109.69113186 -55.50608271 114.83284645 -58.17456055 119.97387695 C-63.77605253 130.76589719 -69.36274147 141.56546165 -74.93389893 152.37316895 C-75.67536065 153.81150284 -76.4170133 155.24973833 -77.15887451 156.68786621 C-78.20162038 158.7095443 -79.24350968 160.73166158 -80.28515625 162.75390625 C-80.88207275 163.91220947 -81.47898926 165.0705127 -82.09399414 166.26391602 C-84.42291284 170.8289785 -86.70811615 175.41623231 -89 180 C-33.23 180 22.54 180 80 180 C77.36 174.72 74.72 169.44 72 164 C70.91976563 161.82792969 69.83953125 159.65585938 68.7265625 157.41796875 C63.63541006 147.18326088 58.51476961 136.97291454 53.15185547 126.87768555 C48.77659254 118.62352751 44.51654203 110.31068437 40.25 102 C34.23514531 90.28664145 28.2046873 78.58194305 22.13574219 66.89648438 C19.08696427 61.02594632 16.04436931 55.15231803 13.01171875 49.2734375 C12.33554591 47.963371 11.65935784 46.65331237 10.9831543 45.34326172 C10.00826772 43.45449873 9.03375329 41.56555018 8.06069946 39.67584229 C4.13953336 32.06104441 0.13967623 24.49842453 -4 17 C-4.33 17 -4.66 17 -5 17 Z " fill="#030303" transform="translate(1014,87)"/>
<path d="M0 0 C15.51 0 31.02 0 47 0 C47.06787969 16.48188531 47.12307611 32.96365019 47.15543652 49.44563675 C47.17086544 57.09955115 47.19187831 64.75337214 47.22631836 72.40722656 C47.25634312 79.08305832 47.27560385 85.75882239 47.28226548 92.4347198 C47.28615575 95.96528559 47.29521401 99.49565782 47.31719017 103.02616119 C47.34159907 106.98004111 47.34196166 110.93373654 47.34057617 114.88769531 C47.351362 116.04144653 47.36214783 117.19519775 47.3732605 118.38391113 C47.31515485 133.79106073 42.97381391 145.47127088 32.45703125 156.703125 C22.77945516 165.74988929 13.11798794 168 0 168 C0 112.56 0 57.12 0 0 Z " fill="#231F20" transform="translate(1795,84)"/>
<path d="M0 0 C0.80610718 -0.0038269 1.61221436 -0.00765381 2.44274902 -0.01159668 C4.14397432 -0.0143139 5.84524153 -0.0069659 7.54638672 0.00976562 C10.14775896 0.0311801 12.74636972 0.00995981 15.34765625 -0.015625 C17.00261025 -0.01298169 18.65756254 -0.00785663 20.3125 0 C21.47670471 -0.01214539 21.47670471 -0.01214539 22.66442871 -0.02453613 C26.00669213 0.03338582 28.15766887 0.15335989 30.86288071 2.20372391 C33.11009873 5.12027802 33.15046192 6.63454864 33.13726807 10.28924561 C33.14276672 11.46431168 33.14826538 12.63937775 33.15393066 13.85005188 C33.13954956 15.13542343 33.12516846 16.42079498 33.11035156 17.74511719 C33.10922302 19.11514757 33.10985708 20.48518037 33.11212158 21.85520935 C33.11326941 25.57200815 33.08974951 29.28829077 33.06182575 33.0049696 C33.03682333 36.89002555 33.03447102 40.77509329 33.02972412 44.66021729 C33.01729089 52.01609463 32.98446473 59.37173423 32.94432616 66.72750688 C32.89961914 75.10225554 32.87762413 83.47701556 32.85754442 91.85185385 C32.81573223 109.07848036 32.74237573 126.30477938 32.65625 143.53125 C17.80625 143.53125 2.95625 143.53125 -12.34375 143.53125 C-12.43401444 125.4769736 -12.50771095 107.42288949 -12.55099869 89.36845016 C-12.5716314 80.98562293 -12.5997654 72.60294576 -12.64550781 64.22021484 C-12.68535405 56.91453714 -12.71117766 49.6089681 -12.72010398 42.30318475 C-12.72532254 38.43412085 -12.73760233 34.56536784 -12.76667023 30.6964035 C-12.79380465 27.05531357 -12.80219918 23.41466281 -12.79618073 19.77348137 C-12.79780722 17.79894793 -12.8193404 15.82446241 -12.84143066 13.85005188 C-12.83593201 12.67498581 -12.83043335 11.49991974 -12.82476807 10.28924561 C-12.82845524 9.26789898 -12.83214241 8.24655235 -12.83594131 7.19425583 C-11.52851454 0.12041071 -6.13992027 -0.06405377 0 0 Z " fill="#231F20" transform="translate(1475.34375,135.46875)"/>
<path d="M0 0 C51.81 0 103.62 0 157 0 C157 12.21 157 24.42 157 37 C105.19 37 53.38 37 0 37 C0 24.79 0 12.58 0 0 Z " fill="#231F20" transform="translate(1408,84)"/>
<path d="M0 0 C0 13.2 0 26.4 0 40 C-47.85 40 -95.7 40 -145 40 C-145 2 -145 2 -144 1 C-142.14277084 0.87596941 -140.28084361 0.82197876 -138.41967773 0.79467773 C-137.20811508 0.77473755 -135.99655243 0.75479736 -134.74827576 0.73425293 C-133.39338417 0.71717361 -132.03849006 0.70029398 -130.68359375 0.68359375 C-129.26631726 0.66286651 -127.84904537 0.64182235 -126.43177795 0.6204834 C-122.57242799 0.56409846 -118.71301661 0.51490473 -114.85354614 0.46757126 C-112.44596253 0.43760533 -110.03841115 0.4057377 -107.63085938 0.37332153 C-71.75388309 -0.10590164 -35.87939198 -0.09542391 0 0 Z " fill="#231F20" transform="translate(375,82)"/>
<path d="M0 0 C0 13.2 0 26.4 0 40 C-47.85 40 -95.7 40 -145 40 C-145 27.46 -145 14.92 -145 2 C-121.25434047 1.25462055 -97.513184 0.80103988 -73.75901413 0.47089767 C-71.41787414 0.43810062 -69.07674935 0.40436944 -66.73562622 0.37039185 C-44.48795975 0.04964103 -22.25040787 -0.03995712 0 0 Z " fill="#231F20" transform="translate(375,160)"/>
<path d="M0 0 C0.92661186 0.00085602 1.85322372 0.00171204 2.80791473 0.00259399 C14.2261395 0.01393096 25.64428866 0.0369686 37.0625 0.0625 C37.0625 12.9325 37.0625 25.8025 37.0625 39.0625 C-10.7875 39.0625 -58.6375 39.0625 -107.9375 39.0625 C-107.9375 26.5225 -107.9375 13.9825 -107.9375 1.0625 C-99.14595627 0.88603891 -90.35444884 0.71639398 -81.5625 0.5625 C-80.88442669 0.55062275 -80.20635338 0.5387455 -79.50773239 0.52650833 C-53.0049448 0.0675926 -26.50638412 -0.02466284 0 0 Z " fill="#231F20" transform="translate(337.9375,238.9375)"/>
<path d="M0 0 C33.66 0 67.32 0 102 0 C100.94414342 11.61442241 98.13917091 22.49655054 89.07421875 30.54296875 C76.9247247 39.07735911 65.05828537 40.30368191 50.68359375 40.1953125 C49.21672256 40.19157522 47.74984884 40.18873163 46.28297424 40.18673706 C42.45088624 40.17915685 38.61895356 40.15955768 34.78692627 40.1373291 C30.17374632 40.11312048 25.560514 40.10406292 20.94728851 40.09242249 C13.9647515 40.07312911 6.98255424 40.0347679 0 40 C0 26.8 0 13.6 0 0 Z " fill="#ED3828" transform="translate(29,82)"/>
<path d="M0 0 C1.49354202 0.01680186 2.9871339 0.02960561 4.48074341 0.03858948 C8.3980586 0.07283398 12.31233446 0.16112162 16.22845459 0.26092529 C20.93439922 0.36951574 25.64136471 0.41056225 30.34820557 0.46300507 C37.48685013 0.55006984 44.61883698 0.72253605 51.7578125 0.87890625 C51.7578125 15.06890625 51.7578125 29.25890625 51.7578125 43.87890625 C18.4278125 43.87890625 -14.9021875 43.87890625 -49.2421875 43.87890625 C-45.73573409 39.78804393 -42.29672386 35.84222057 -38.6171875 31.94140625 C-34.46920134 27.39867216 -30.67994265 22.6764884 -26.9921875 17.75390625 C-26.50927246 17.10945557 -26.02635742 16.46500488 -25.52880859 15.80102539 C-25.05781738 15.16414795 -24.58682617 14.52727051 -24.1015625 13.87109375 C-23.64624146 13.26940369 -23.19092041 12.66771362 -22.72180176 12.04779053 C-21.18288002 9.92549955 -21.18288002 9.92549955 -20.18630981 7.55119324 C-15.81748144 -1.28530192 -8.71117659 -0.28776509 0 0 Z " fill="#ED3828" transform="translate(1867.2421875,235.12109375)"/>
<path d="M0 0 C5.72007549 4.30912353 8.15747612 10.80853081 11.1875 17.125 C12.35130995 19.50206386 13.51668303 21.87836304 14.68359375 24.25390625 C15.25190918 25.4155127 15.82022461 26.57711914 16.40576172 27.77392578 C18.44940999 31.90941863 20.5807785 35.99187369 22.75 40.0625 C23.53417658 41.54800693 24.31800993 43.03369508 25.1015625 44.51953125 C26.75636751 47.65363164 28.41752868 50.78422727 30.08496094 53.91162109 C32.05046772 57.60136696 33.99949824 61.2995161 35.94104004 65.00192261 C36.72447261 66.48948732 37.51305933 67.97435002 38.30700684 69.45632935 C39.42915727 71.55259091 40.53267225 73.65774793 41.6328125 75.765625 C41.97291351 76.39099655 42.31301453 77.0163681 42.66342163 77.66069031 C44.86162826 81.93341003 45.43695679 85.2248428 45 90 C43.23984869 93.1850357 42.50109084 93.83296972 39 95 C36.30366456 95.10654853 33.63279654 95.15724888 30.93603516 95.16113281 C30.11457504 95.16609772 29.29311493 95.17106262 28.44676208 95.17617798 C25.72752039 95.19079066 23.00833702 95.19759986 20.2890625 95.203125 C18.39960732 95.20887688 16.51015216 95.2146346 14.62069702 95.22039795 C10.65793587 95.23090517 6.695195 95.23674977 2.73242188 95.24023438 C-2.34413884 95.24572068 -7.42043155 95.26975281 -12.49690819 95.29820633 C-16.40026634 95.31683341 -20.30355992 95.32203833 -24.20695877 95.32357025 C-26.07845145 95.32659679 -27.94994299 95.33462536 -29.82139206 95.34775543 C-32.4402174 95.36481857 -35.05838765 95.36293519 -37.67724609 95.35644531 C-38.44936935 95.3656601 -39.22149261 95.37487488 -40.01701355 95.3843689 C-44.51601775 95.34945986 -47.43016262 94.80143926 -51 92 C-52.57216847 88.85566307 -52.2878303 86.49744251 -52 83 C-50.88733886 79.90151067 -49.37883157 77.05587091 -47.828125 74.15625 C-47.39432022 73.31796158 -46.96051544 72.47967316 -46.51356506 71.61598206 C-45.10578695 68.90342099 -43.67828463 66.20181082 -42.25 63.5 C-41.27633393 61.63403595 -40.30392539 59.76741518 -39.33276367 57.90014648 C-37.42461518 54.23650859 -35.50888203 50.57702288 -33.58544922 46.92138672 C-31.46761532 42.89532077 -29.36936561 38.8599755 -27.28515625 34.81640625 C-22.75241013 26.0296543 -18.12919228 17.29410565 -13.375 8.625 C-12.96032471 7.86195557 -12.54564941 7.09891113 -12.1184082 6.31274414 C-8.7618848 0.26307266 -7.01332858 -0.71321986 0 0 Z M-4 17 C-4.44166504 17.85827393 -4.88333008 18.71654785 -5.33837891 19.60083008 C-7.04764567 22.92213204 -8.75753217 26.2431147 -10.46749878 29.5640564 C-11.62530171 31.81308608 -12.78250378 34.06242427 -13.93969727 36.31176758 C-17.66484494 43.54925137 -21.40016703 50.78088407 -25.17578125 57.9921875 C-25.81889594 59.22287516 -26.46196359 60.45358741 -27.10498047 61.68432617 C-28.30213126 63.97288423 -29.50282635 66.2595927 -30.70751953 68.54418945 C-31.24618652 69.57503662 -31.78485352 70.60588379 -32.33984375 71.66796875 C-32.80769287 72.55766357 -33.27554199 73.4473584 -33.75756836 74.36401367 C-35.29582476 77.49272641 -35.29582476 77.49272641 -37 83 C-14.56 83 7.88 83 31 83 C28.36 77.72 25.72 72.44 23 67 C21.99195313 64.97230469 20.98390625 62.94460937 19.9453125 60.85546875 C15.21359458 51.33871085 10.44926835 41.84335357 5.5 32.4375 C5.10312988 31.68299561 4.70625977 30.92849121 4.29736328 30.15112305 C1.94904923 25.7162561 -0.48815194 21.34435539 -3 17 C-3.33 17 -3.66 17 -4 17 Z " fill="#EC3727" transform="translate(1013,153)"/>
<path d="M0 0 C3.78568498 36.11446402 3.78568498 36.11446402 -2.04931641 45.18603516 C-7.48785999 50.01793696 -13.94989042 52.44343002 -20.7578125 54.78613281 C-25.81670313 56.68016927 -30.2370986 59.47594063 -34.8125 62.3125 C-36.33544435 63.21191834 -37.86242909 64.10455288 -39.39453125 64.98828125 C-40.02206299 65.35477783 -40.64959473 65.72127441 -41.29614258 66.09887695 C-43 67 -43 67 -46 68 C-49.29454863 32.8315985 -49.29454863 32.8315985 -44.30957031 24.0078125 C-39.73389739 19.52451521 -34.08478053 17.42789992 -28.14160156 15.27832031 C-22.45880941 12.96598742 -17.45760884 9.49463332 -12.3125 6.1875 C-10.37661804 4.98455356 -8.43563261 3.78975831 -6.48828125 2.60546875 C-5.66884033 2.10168701 -4.84939941 1.59790527 -4.00512695 1.07885742 C-2 0 -2 0 0 0 Z " fill="#ED3828" transform="translate(1373,3)"/>
<path d="M0 0 C2.67114878 1.41413759 4.62792601 2.97583439 6.6875 5.1875 C7.409375 4.40375 8.13125 3.62 8.875 2.8125 C13.48838122 -1.49332247 17.32287919 -2.2321908 23.48046875 -2.05859375 C28.31252058 -1.51979859 31.38771465 0.62300225 34.5 4.1875 C37.74530427 8.63820299 37.80789502 11.65388037 37.78515625 17.04296875 C37.7837413 17.70460526 37.78232635 18.36624176 37.78086853 19.04792786 C37.77527996 21.15699828 37.76272965 23.26596177 37.75 25.375 C37.74498352 26.80663909 37.74042087 28.23827985 37.73632812 29.66992188 C37.7253143 33.17581588 37.70805755 36.6816475 37.6875 40.1875 C35.3775 40.1875 33.0675 40.1875 30.6875 40.1875 C30.657771 39.1519397 30.657771 39.1519397 30.62744141 38.09545898 C30.53161707 34.93828529 30.42217186 31.78172178 30.3125 28.625 C30.2815625 27.53896484 30.250625 26.45292969 30.21875 25.33398438 C30.01132326 19.64703469 29.74702426 14.52320697 27.6875 9.1875 C24.83967112 6.66513728 22.95561213 6.22580173 19.1875 5.6875 C14.78264288 6.3167653 13.44205072 7.7848197 10.6875 11.1875 C9.31910637 13.92428725 9.47115182 16.23014424 9.37109375 19.2890625 C9.30825195 21.10664063 9.30825195 21.10664063 9.24414062 22.9609375 C9.20482422 24.23195313 9.16550781 25.50296875 9.125 26.8125 C9.06022461 28.730625 9.06022461 28.730625 8.99414062 30.6875 C8.88780114 33.85405348 8.78577167 37.02068753 8.6875 40.1875 C6.0475 40.1875 3.4075 40.1875 0.6875 40.1875 C0.66768066 39.36024414 0.64786133 38.53298828 0.62744141 37.68066406 C0.53218788 33.93262194 0.42250891 30.18513683 0.3125 26.4375 C0.2815625 25.13554687 0.250625 23.83359375 0.21875 22.4921875 C0.18007813 21.24179687 0.14140625 19.99140625 0.1015625 18.703125 C0.05443115 16.97497559 0.05443115 16.97497559 0.00634766 15.21191406 C-0.29934324 12.31229785 -0.74494708 10.61362668 -2.3125 8.1875 C-5.74634607 5.64391032 -9.16761944 5.8914371 -13.3125 6.1875 C-15.8876435 7.02268168 -16.9265236 7.59011816 -18.39208984 9.85839844 C-19.58522673 12.87763607 -19.63809489 15.45931281 -19.7265625 18.703125 C-19.78457031 20.57871094 -19.78457031 20.57871094 -19.84375 22.4921875 C-19.89015625 24.44511719 -19.89015625 24.44511719 -19.9375 26.4375 C-19.97617187 27.75492187 -20.01484375 29.07234375 -20.0546875 30.4296875 C-20.14896182 33.68215161 -20.2345675 36.93460996 -20.3125 40.1875 C-22.9525 40.1875 -25.5925 40.1875 -28.3125 40.1875 C-28.3125 26.6575 -28.3125 13.1275 -28.3125 -0.8125 C-25.6725 -0.8125 -23.0325 -0.8125 -20.3125 -0.8125 C-19.9825 -0.1525 -19.6525 0.5075 -19.3125 1.1875 C-18.3225 0.6925 -17.3325 0.1975 -16.3125 -0.3125 C-10.49846761 -2.75743515 -5.62706796 -2.67955617 0 0 Z " fill="#2B2D34" transform="translate(655.3125,350.8125)"/>
<path d="M0 0 C5.86134179 4.75340524 8.07003389 9.59285451 8.9140625 17.0390625 C9.10704839 23.68830376 7.72733607 29.23668511 3.53515625 34.4921875 C-0.64217628 38.59511461 -5.20046651 40.22383174 -11 40.5 C-16.10016464 40.30293027 -21.29905715 38.70094285 -25 35 C-25.33 42.92 -25.66 50.84 -26 59 C-28.64 59 -31.28 59 -34 59 C-34 38.87 -34 18.74 -34 -2 C-31.36 -2 -28.72 -2 -26 -2 C-25.67 -0.68 -25.34 0.64 -25 2 C-24.0925 1.360625 -23.185 0.72125 -22.25 0.0625 C-15.10557818 -4.47146 -7.28627219 -4.23928564 0 0 Z M-22 7 C-25.766342 12.07231817 -26.78647881 16.80647937 -26 23 C-24.64058949 26.63478746 -22.7384029 29.345986 -19.8125 31.9375 C-14.82089553 33.82321725 -10.06373134 33.85241077 -5.125 31.8125 C-0.90708277 28.21486472 0.51256508 24.58729226 0.9921875 19.05078125 C1.00759545 15.00619519 0.41359351 11.52384592 -2.40234375 8.48828125 C-8.63348501 3.17124384 -15.00294123 2.02431377 -22 7 Z " fill="#2B2D34" transform="translate(373,352)"/>
<path d="M0 0 C0.66 0.66 1.32 1.32 2 2 C2.33 0.68 2.66 -0.64 3 -2 C5.64 -2 8.28 -2 11 -2 C11 18.13 11 38.26 11 59 C8.36 59 5.72 59 3 59 C2.67 51.08 2.34 43.16 2 35 C0.35 36.32 -1.3 37.64 -3 39 C-8.5832173 40.86107243 -14.12954563 40.52996207 -19.75 38.9375 C-25.35460906 35.59629075 -28.9861304 31.23560541 -31 25 C-31.72494967 18.17417515 -31.77641417 10.95716038 -28 5 C-20.2613688 -3.75481509 -10.18466216 -5.29602432 0 0 Z M-21.875 10.0625 C-23.64630636 14.68757772 -23.64542523 19.11628243 -23 24 C-20.86260117 28.4331235 -18.5825842 31.12530646 -14 33 C-10.05802983 33.57687368 -6.94897775 33.38821817 -3.25 31.875 C0.4063815 28.82801541 2.67368141 26.21501105 3.38671875 21.375 C3.56817725 16.76970834 3.33382993 13.692388 1.3125 9.5 C-2.34484677 5.5461116 -4.51505899 4.16499345 -9.9375 3.5625 C-15.20259787 3.78105123 -18.38961042 6.22857146 -21.875 10.0625 Z " fill="#2B2D34" transform="translate(1229,352)"/>
<path d="M0 0 C2.64 0 5.28 0 8 0 C8 18.15 8 36.3 8 55 C5.36 55 2.72 55 0 55 C-0.495 53.02 -0.495 53.02 -1 51 C-1.928125 51.639375 -2.85625 52.27875 -3.8125 52.9375 C-9.15580285 56.39493125 -13.79150734 56.62730684 -20 56 C-26.32389198 54.35512124 -29.43943519 50.69298301 -32.87109375 45.31640625 C-35.82454461 39.25621124 -35.69246095 32.73022549 -33.75 26.375 C-31.60600399 20.48402032 -28.66233519 16.83116759 -23 14 C-17.92422731 12.07470691 -12.17206068 12.29544261 -7.1875 14.3125 C-4 16 -4 16 -1 19 C-0.67 12.73 -0.34 6.46 0 0 Z M-24.25 25.5 C-27.17219028 29.67455755 -27.41068202 32.98967931 -27 38 C-25.64227166 42.02153232 -23.95515854 45.12671219 -20.8125 48 C-15.79489781 49.78403633 -11.06166769 49.85155839 -6.125 47.8125 C-1.64257607 43.98925606 -0.39457013 40.00024265 0.0625 34.27734375 C-0.03796744 30.61656145 -1.16041254 28.12729868 -3 25 C-6.40577443 21.84342858 -8.65901206 20.10120664 -13.3125 19.75 C-18.52800779 20.10359375 -20.79728579 21.66365087 -24.25 25.5 Z " fill="#2B2D34" transform="translate(1457,336)"/>
<path d="M0 0 C5.15411184 3.56823127 8.2417332 7.0173915 9.43359375 13.27734375 C9.91929102 16.97703778 10.19642231 19.41073306 9 23 C-1.56 23 -12.12 23 -23 23 C-19.97160542 30.71058562 -19.97160542 30.71058562 -16 33 C-11.12241573 34.33025025 -7.66963292 33.93833819 -3 32 C-2.54625 31.13375 -2.0925 30.2675 -1.625 29.375 C-1.08875 28.59125 -0.5525 27.8075 0 27 C3.03738889 26.54739088 5.95092411 26.71235133 9 27 C6.96533003 32.76489824 5.02625494 35.48162154 0 39 C-5.85149997 41.75649172 -12.02747718 42.07475789 -18.28125 40.3828125 C-23.69292242 38.03081641 -27.12531243 34.09287209 -30 29 C-32.22322545 22.37074593 -31.88558163 14.18378318 -29.11328125 7.78515625 C-22.62087161 -2.62547956 -10.80471497 -4.28111348 0 0 Z M-21.25 9.9375 C-23.24806947 12.84624861 -23.24806947 12.84624861 -23 16 C-14.75 16 -6.5 16 2 16 C0.09201728 9.9802805 0.09201728 9.9802805 -4.15234375 5.91015625 C-10.41544919 2.82494786 -17.14704719 4.58086717 -21.25 9.9375 Z " fill="#2B2D34" transform="translate(768,351)"/>
<path d="M0 0 C5.36599809 2.7018934 8.36660177 6.55816912 10.58203125 12.1640625 C12.35598102 19.18328822 12.03822767 26.42036202 8.3203125 32.69921875 C5.03603065 37.13192595 0.41630221 39.88436212 -4.875 41.3125 C-11.9435526 42.28545168 -17.8148668 41.10008325 -23.875 37.3125 C-28.90268026 32.54943449 -30.99017646 26.24673872 -31.375 19.4375 C-31.16122351 13.65662752 -29.31310764 8.95147778 -25.875 4.3125 C-18.35744515 -2.06425859 -9.20234329 -3.77844559 0 0 Z M-20.6875 10.3125 C-23.36072265 14.81476973 -23.34490508 19.23056358 -22.875 24.3125 C-21.55251581 28.20648123 -20.26750918 29.96563142 -17.1875 32.6875 C-13.17036787 34.65816859 -10.26273698 35.17953785 -5.875 34.3125 C-1.51160288 32.08963731 1.35931511 29.92289944 3.125 25.3125 C3.78362967 19.99467528 3.77560637 15.71380603 1.5 10.8125 C-1.94290535 7.18838911 -4.90482395 5.55877201 -9.875 4.9375 C-14.37605873 5.50013234 -17.6221192 6.93001084 -20.6875 10.3125 Z " fill="#2B2D34" transform="translate(905.875,350.6875)"/>
<path d="M0 0 C5.5253717 4.03138708 8.6059634 8.52777007 9.8203125 15.328125 C10.47372847 22.51570069 8.27023366 29.6067978 3.8203125 35.328125 C-2.746349 40.05739946 -9.25354339 41.17437497 -17.1796875 40.328125 C-23.10789876 38.53014065 -26.69559075 35.34932325 -30.1796875 30.328125 C-33.20989301 24.05431922 -33.36849114 16.56323798 -31.4921875 9.87890625 C-28.89140277 4.18968965 -25.08735615 0.71587595 -19.4296875 -1.984375 C-12.50332064 -3.44956799 -6.26536807 -3.60195249 0 0 Z M-23.1796875 10.328125 C-24.23305261 13.48822033 -24.38001638 15.8834386 -24.4296875 19.203125 C-24.45546875 20.23179687 -24.48125 21.26046875 -24.5078125 22.3203125 C-24.03059074 26.69484531 -22.37267846 29.31057389 -19.0546875 32.140625 C-14.11801981 34.17968339 -9.38478969 34.11216133 -4.3671875 32.328125 C-0.26699476 28.57937735 1.54144221 24.28021701 2.3203125 18.828125 C1.68692386 14.39440452 0.46311965 10.96096208 -2.1796875 7.328125 C-9.58382945 2.06295739 -17.46550459 3.47110551 -23.1796875 10.328125 Z " fill="#2B2D34" transform="translate(573.1796875,351.671875)"/>
<path d="M0 0 C2.64 0 5.28 0 8 0 C11.2370701 6.18251226 13.81584871 12.46385301 16.25 19 C16.61351562 19.96550781 16.97703125 20.93101562 17.3515625 21.92578125 C18.23822626 24.28244018 19.12094372 26.64049524 20 29 C22.45577587 26.54422413 23.12823766 24.40453387 24.34765625 21.15234375 C24.78787109 19.99025391 25.22808594 18.82816406 25.68164062 17.63085938 C26.13732422 16.41205078 26.59300781 15.19324219 27.0625 13.9375 C27.96772378 11.52907152 28.8751545 9.12147098 29.78515625 6.71484375 C30.18613525 5.64355225 30.58711426 4.57226074 31.00024414 3.46850586 C32 1 32 1 33 0 C35.67058851 -0.14115161 38.32432238 -0.04247107 41 0 C36.57613467 12.09628405 31.79934879 24.03516204 26.91186523 35.95092773 C25.66869298 38.98337564 24.43084623 42.01796255 23.19335938 45.05273438 C22.40395905 46.98189903 21.61425721 48.91094034 20.82421875 50.83984375 C20.45447433 51.74693588 20.08472992 52.65402802 19.70378113 53.58860779 C19.36284927 54.41780228 19.02191742 55.24699677 18.6706543 56.10131836 C18.37120407 56.83249374 18.07175385 57.56366913 17.76322937 58.31700134 C17 60 17 60 16 61 C13.32941149 61.14115161 10.67567762 61.04247107 8 61 C9.81749041 55.29968918 11.86719068 49.81622935 14.328125 44.359375 C15.62944426 39.78962597 13.57896453 35.64515323 11.85546875 31.39453125 C11.21061523 29.79448242 11.21061523 29.79448242 10.55273438 28.16210938 C9.87694336 26.50405273 9.87694336 26.50405273 9.1875 24.8125 C8.74857422 23.72646484 8.30964844 22.64042969 7.85742188 21.52148438 C6.17442412 17.35775294 4.49088659 13.19440532 2.78369141 9.04052734 C2.41808105 8.14414551 2.0524707 7.24776367 1.67578125 6.32421875 C1.35134033 5.53490967 1.02689941 4.74560059 0.69262695 3.93237305 C0 2 0 2 0 0 Z " fill="#2A2C33" transform="translate(1624,350)"/>
<path d="M0 0 C2.64 0 5.28 0 8 0 C8.01981934 0.78648926 8.03963867 1.57297852 8.06005859 2.38330078 C8.15561233 5.96419042 8.26516936 9.54452098 8.375 13.125 C8.4059375 14.3625 8.436875 15.6 8.46875 16.875 C8.50742188 18.07382812 8.54609375 19.27265625 8.5859375 20.5078125 C8.6173584 21.60754395 8.6487793 22.70727539 8.68115234 23.84033203 C9.01680211 27.166503 9.74373302 29.9063784 11 33 C14.95423554 35.12920375 20.97607389 34.10652243 25.375 33.875 C27.30381215 33.05908929 27.30381215 33.05908929 28.07568359 30.35107422 C29.01460399 26.9470538 29.31340741 24.03074059 29.4140625 20.5078125 C29.45273438 19.30898438 29.49140625 18.11015625 29.53125 16.875 C29.5621875 15.6375 29.593125 14.4 29.625 13.125 C29.66367188 11.86429687 29.70234375 10.60359375 29.7421875 9.3046875 C29.83616989 6.20326863 29.92183411 3.10185114 30 0 C32.64 0 35.28 0 38 0 C38 13.53 38 27.06 38 41 C35.36 41 32.72 41 30 41 C29.67 40.01 29.34 39.02 29 38 C28.401875 38.474375 27.80375 38.94875 27.1875 39.4375 C22.58058897 42.72815074 17.45196647 42.71778848 12 42 C7.82675222 40.31249544 4.85625085 38.07721882 2.0625 34.5625 C0.06284493 29.73980248 -0.12325014 24.89652748 -0.09765625 19.7265625 C-0.09443359 18.57285156 -0.09121094 17.41914063 -0.08789062 16.23046875 C-0.07951172 15.04066406 -0.07113281 13.85085938 -0.0625 12.625 C-0.05798828 11.41199219 -0.05347656 10.19898438 -0.04882812 8.94921875 C-0.03708354 5.96609493 -0.0206584 2.98307321 0 0 Z " fill="#2B2D34" transform="translate(1286,350)"/>
<path d="M0 0 C9.57 0 19.14 0 29 0 C29 1.98 29 3.96 29 6 C22.07 6 15.14 6 8 6 C8 11.61 8 17.22 8 23 C14.27 23 20.54 23 27 23 C27 24.98 27 26.96 27 29 C20.73 29 14.46 29 8 29 C8 34.61 8 40.22 8 46 C14.93 46 21.86 46 29 46 C29 47.98 29 49.96 29 52 C19.43 52 9.86 52 0 52 C0 34.84 0 17.68 0 0 Z " fill="#2B2D34" transform="translate(265,339)"/>
<path d="M0 0 C2.64 0 5.28 0 8 0 C8 3.3 8 6.6 8 10 C11.63 10 15.26 10 19 10 C19 11.98 19 13.96 19 16 C15.37 16 11.74 16 8 16 C8.33 25.24 8.66 34.48 9 44 C12.3 44.33 15.6 44.66 19 45 C19 46.98 19 48.96 19 51 C17.10489301 51.08160748 15.20875496 51.13946459 13.3125 51.1875 C11.72888672 51.23970703 11.72888672 51.23970703 10.11328125 51.29296875 C6.3957811 50.94314126 4.76364871 50.54100801 2 48 C-0.76786536 41.42214314 -0.23964884 33.92666945 -0.125 26.9375 C-0.11597656 25.88111328 -0.10695313 24.82472656 -0.09765625 23.73632812 C-0.0743167 21.15730747 -0.04157775 18.5787801 0 16 C-1.65 16 -3.3 16 -5 16 C-5 14.02 -5 12.04 -5 10 C-3.35 10 -1.7 10 0 10 C0 6.7 0 3.4 0 0 Z " fill="#292B31" transform="translate(481,340)"/>
<path d="M0 0 C2.64 0 5.28 0 8 0 C8 3.3 8 6.6 8 10 C11.3 10 14.6 10 18 10 C18 11.98 18 13.96 18 16 C14.7 16 11.4 16 8 16 C8.13810905 20.47944035 8.28677416 24.95846783 8.4375 29.4375 C8.47681641 30.71689453 8.51613281 31.99628906 8.55664062 33.31445312 C8.61948242 35.13686523 8.61948242 35.13686523 8.68359375 36.99609375 C8.72025146 38.12200928 8.75690918 39.2479248 8.79467773 40.40795898 C8.71218045 42.92853441 8.71218045 42.92853441 10 44 C11.34747084 44.23075082 12.70377565 44.41153063 14.0625 44.5625 C15.361875 44.706875 16.66125 44.85125 18 45 C18 46.98 18 48.96 18 51 C7.10055447 51.62580548 7.10055447 51.62580548 2.8125 49.1875 C-0.28550864 45.44852405 -0.11887243 42.27080781 -0.09765625 37.58203125 C-0.09443359 36.32841797 -0.09121094 35.07480469 -0.08789062 33.78320312 C-0.07951172 32.47287109 -0.07113281 31.16253906 -0.0625 29.8125 C-0.05748317 28.47721519 -0.05292059 27.14192859 -0.04882812 25.80664062 C-0.03702695 22.53771527 -0.02056297 19.26888009 0 16 C-1.65 16 -3.3 16 -5 16 C-5 14.02 -5 12.04 -5 10 C-3.35 10 -1.7 10 0 10 C0 6.7 0 3.4 0 0 Z " fill="#2B2D34" transform="translate(1567,340)"/>
<path d="M0 0 C0 1.98 0 3.96 0 6 C-1.423125 6.5259375 -1.423125 6.5259375 -2.875 7.0625 C-6.34336062 8.7714341 -6.34336062 8.7714341 -7.375 12.6875 C-7.58125 13.780625 -7.7875 14.87375 -8 16 C-5.03 16 -2.06 16 1 16 C1 17.98 1 19.96 1 22 C-1.97 22 -4.94 22 -8 22 C-8 33.55 -8 45.1 -8 57 C-10.31 57 -12.62 57 -15 57 C-15 45.45 -15 33.9 -15 22 C-16.98 22 -18.96 22 -21 22 C-21 20.02 -21 18.04 -21 16 C-19.02 16 -17.04 16 -15 16 C-15.05800781 15.41992188 -15.11601563 14.83984375 -15.17578125 14.2421875 C-15.42478244 9.93090968 -15.49522425 6.94660761 -12.6875 3.5 C-8.55243012 -0.34657663 -5.46246829 -0.10306544 0 0 Z " fill="#2B2D34" transform="translate(978,334)"/>
<path d="M0 0 C2.31 0 4.62 0 7 0 C8 1 8 1 8.12025452 2.82862854 C8.1169236 4.02442787 8.1169236 4.02442787 8.11352539 5.24438477 C8.11344986 6.14524307 8.11337433 7.04610138 8.11329651 7.97425842 C8.10813522 8.95341721 8.10297394 9.93257599 8.09765625 10.94140625 C8.0962413 11.93881332 8.09482635 12.9362204 8.09336853 13.96385193 C8.08775114 17.16343124 8.07519571 20.36294169 8.0625 23.5625 C8.05748724 25.72591045 8.05292395 27.88932199 8.04882812 30.05273438 C8.03777606 35.36851629 8.02049979 40.68424646 8 46 C13.94 46 19.88 46 26 46 C26 47.98 26 49.96 26 52 C17.42 52 8.84 52 0 52 C0 34.84 0 17.68 0 0 Z " fill="#2B2C33" transform="translate(1078,339)"/>
<path d="M0 0 C2.64 0 5.28 0 8 0 C8 13.53 8 27.06 8 41 C5.36 41 2.72 41 0 41 C0 27.47 0 13.94 0 0 Z " fill="#2B2D34" transform="translate(1511,350)"/>
<path d="M0 0 C2.64 0 5.28 0 8 0 C8 13.53 8 27.06 8 41 C5.36 41 2.72 41 0 41 C0 27.47 0 13.94 0 0 Z " fill="#2B2D34" transform="translate(1370,350)"/>
<path d="M0 0 C2.64 0 5.28 0 8 0 C8 13.53 8 27.06 8 41 C5.36 41 2.72 41 0 41 C0 27.47 0 13.94 0 0 Z " fill="#2B2D34" transform="translate(1146,350)"/>
<path d="M0 0 C2.31 0 4.62 0 7 0 C7 13.53 7 27.06 7 41 C4.69 41 2.38 41 0 41 C0 27.47 0 13.94 0 0 Z " fill="#2B2D34" transform="translate(426,350)"/>
<path d="M0 0 C3.625 0.375 3.625 0.375 7 1 C8.33157895 6.44736842 8.33157895 6.44736842 6.875 8.875 C4.40522151 10.3568671 2.83386167 10.3633156 0 10 C-2 8 -2 8 -2.25 5 C-2 2 -2 2 0 0 Z " fill="#292B33" transform="translate(1147,334)"/>
<path d="M0 0 C2 3 2 3 1.6875 6.125 C1 9 1 9 0 10 C-2.33944736 9.71269945 -4.6739143 9.38063221 -7 9 C-8.33157895 3.55263158 -8.33157895 3.55263158 -6.875 1.125 C-4.38370746 -0.36977553 -2.85550958 -0.43930917 0 0 Z " fill="#2A2C33" transform="translate(1518,334)"/>
<path d="M0 0 C2 2 2 2 2.25 5 C2 8 2 8 0 10 C-2.4375 10.375 -2.4375 10.375 -5 10 C-6.875 8.3125 -6.875 8.3125 -8 6 C-7.8125 3.3125 -7.8125 3.3125 -7 1 C-4.48718205 -0.25640898 -2.78302919 -0.20872719 0 0 Z " fill="#2A2C33" transform="translate(1377,334)"/>
<path d="M0 0 C2.5625 0.4375 2.5625 0.4375 4.375 2.9375 C4.766875 3.7625 5.15875 4.5875 5.5625 5.4375 C4.375 7.9375 4.375 7.9375 2.5625 10.4375 C0 10.875 0 10.875 -2.4375 10.4375 C-4.4375 8.4375 -4.4375 8.4375 -4.6875 5.4375 C-4.37510823 1.68879879 -3.74211499 0.67166166 0 0 Z " fill="#2A2C33" transform="translate(429.4375,333.5625)"/>
</svg>
