<?xml version="1.0" encoding="UTF-8"?>
<svg version="1.1" xmlns="http://www.w3.org/2000/svg" width="500" height="109">
<path d="M0 0 C4.24875 -0.103125 8.4975 -0.20625 12.875 -0.3125 C14.85282471 -0.38078003 14.85282471 -0.38078003 16.87060547 -0.45043945 C25.49541506 -0.55096927 32.38802295 0.78083372 38.90332031 6.74121094 C45.4481261 13.71095001 46.5819538 20.25565068 46.34375 29.625 C45.62312346 36.7002424 42.25986929 41.67399284 37.09375 46.45703125 C26.10900996 54.55212886 12.73565896 52.2735659 0 51 C0 34.17 0 17.34 0 0 Z M12 11 C12 20.9 12 30.8 12 41 C21.22002098 41.08102099 21.22002098 41.08102099 28.8125 36.5625 C32.79217508 31.90059491 33.38359252 29.38577703 33.25390625 23.4375 C32.72676058 18.37690161 29.70843375 15.24487954 26 12 C21.78779356 10.4202491 21.78779356 10.4202491 12 11 Z " fill="#FFFFFF" transform="translate(108,21)"/>
<path d="M0 0 C4.62 -0.103125 9.24 -0.20625 14 -0.3125 C15.44117188 -0.35802002 16.88234375 -0.40354004 18.3671875 -0.45043945 C25.79943306 -0.53061749 31.42342484 -0.27676928 37 5 C41.00429334 9.63772901 41.69964795 14.21673531 41.44140625 20.28125 C40.59766676 25.47808794 38.36353072 28.98957507 34.37890625 32.37890625 C28.12496238 36.2388673 21.08880797 35.27264646 14 35 C14 40.61 14 46.22 14 52 C9.38 52 4.76 52 0 52 C0 34.84 0 17.68 0 0 Z M14 11 C14 15.29 14 19.58 14 24 C21.17833412 24.60833895 21.17833412 24.60833895 27.75 22.4375 C29.54963144 18.92821869 29.03774589 16.73588519 28 13 C24.57905758 10.71937172 23.31812778 10.78074993 19.3125 10.875 C17.559375 10.91625 15.80625 10.9575 14 11 Z " fill="#FFFFFF" transform="translate(290,21)"/>
<path d="M0 0 C3.26296585 2.22159377 5.68223874 4.44840085 8.203125 7.5 C8.203125 8.49 8.203125 9.48 8.203125 10.5 C6.96135805 11.20226141 5.70926901 11.88629109 4.453125 12.5625 C3.75703125 12.94535156 3.0609375 13.32820313 2.34375 13.72265625 C-0.19155693 14.64332428 -1.31269117 14.4693084 -3.796875 13.5 C-4.81707073 12.5206121 -5.81837305 11.52104551 -6.796875 10.5 C-11.83606678 8.82026941 -16.15565498 8.94260452 -21.109375 10.625 C-24.44875734 12.95480163 -25.46864731 14.66289777 -26.796875 18.5 C-27.3578202 23.73548855 -26.62486847 27.05601027 -23.796875 31.5 C-20.98327843 34.52201113 -17.9733142 35.18540019 -13.89453125 35.57421875 C-9.49333349 35.41849667 -5.90664612 33.60977112 -2.796875 30.5 C1.33575759 30.84438605 4.58420704 32.56429969 8.203125 34.5 C7.07229969 39.30600756 4.35346414 41.42104785 0.484375 44.140625 C-5.94772866 47.97345389 -12.52367054 49.56229709 -19.94921875 48.06640625 C-26.8092622 46.17842848 -32.30133795 42.43083148 -36.1484375 36.37109375 C-39.76890729 29.29945671 -41.08002512 22.70989868 -39.1484375 14.8671875 C-36.37479596 7.11521499 -31.93181153 1.86963638 -24.609375 -1.9375 C-16.09120721 -5.26943638 -7.88040946 -4.47403892 0 0 Z " fill="#FFFFFF" transform="translate(222.796875,24.5)"/>
<path d="M0 0 C4.29 0 8.58 0 13 0 C15.93994801 5.70789517 18.50912858 11.46544962 20.890625 17.42578125 C21.24010193 18.29518845 21.58957886 19.16459564 21.949646 20.06034851 C22.6807429 21.88238709 23.41007045 23.70513655 24.13769531 25.52856445 C25.2547394 28.32436202 26.38098258 31.11633759 27.5078125 33.90820312 C28.21930839 35.68467229 28.93026528 37.46135745 29.640625 39.23828125 C30.14677338 40.48983757 30.14677338 40.48983757 30.66314697 41.76667786 C30.97056824 42.54145981 31.2779895 43.31624176 31.59472656 44.11450195 C31.86690002 44.79430618 32.13907349 45.47411041 32.41949463 46.17451477 C33 48 33 48 33 51 C28.38 51 23.76 51 19 51 C18.64172119 50.01080566 18.28344238 49.02161133 17.91430664 48.00244141 C16.58674902 44.33809921 15.25760571 40.67433388 13.92797852 37.01074219 C13.35234895 35.42398559 12.77715154 33.83707215 12.20239258 32.25 C11.37694613 29.97094164 10.54995538 27.69244888 9.72265625 25.4140625 C9.46533218 24.70255035 9.20800812 23.99103821 8.94288635 23.25796509 C7.61071974 19.57053569 7.61071974 19.57053569 6 16 C5.64172119 16.98919434 5.28344238 17.97838867 4.91430664 18.99755859 C3.58674902 22.66190079 2.25760571 26.32566612 0.92797852 29.98925781 C0.35234895 31.57601441 -0.22284846 33.16292785 -0.79760742 34.75 C-1.62305387 37.02905836 -2.45004462 39.30755112 -3.27734375 41.5859375 C-3.53466782 42.29744965 -3.79199188 43.00896179 -4.05711365 43.74203491 C-5.88612829 48.77225659 -5.88612829 48.77225659 -7 51 C-11.29 51 -15.58 51 -20 51 C-19.3313837 47.65691849 -18.80931305 45.21352448 -17.57299805 42.17871094 C-17.14201057 41.11169952 -17.14201057 41.11169952 -16.70231628 40.02313232 C-16.3919191 39.26784241 -16.08152191 38.51255249 -15.76171875 37.734375 C-15.43967972 36.94154114 -15.11764069 36.14870728 -14.7858429 35.33184814 C-14.10449237 33.65675126 -13.42102938 31.98251227 -12.7355957 30.30908203 C-11.69744636 27.77428552 -10.66552031 25.23702997 -9.63476562 22.69921875 C-8.96911596 21.06495506 -8.30311146 19.43083584 -7.63671875 17.796875 C-7.33239426 17.04968201 -7.02806976 16.30248901 -6.71452332 15.53265381 C-4.57338664 10.30970292 -2.31114807 5.1500311 0 0 Z " fill="#FFFFFF" transform="translate(420,21)"/>
<path d="M0 0 C3.3 0 6.6 0 10 0 C10.82058197 4.9234918 10.94400068 7.58399898 8.125 11.8125 C5.9401769 14.37966715 3.71115933 16.88594796 1.4375 19.37353516 C-0.98315473 22.11239416 -3.17249134 25.02248854 -5.375 27.9375 C-8.21016445 31.66384807 -11.07397943 35.34247428 -14 39 C-6.08 39.33 1.84 39.66 10 40 C10 43.96 10 47.92 10 52 C-4.19 52 -18.38 52 -33 52 C-33 40 -33 40 -31.41796875 37.1328125 C-30.68191406 36.47023437 -29.94585937 35.80765625 -29.1875 35.125 C-25.32414897 31.34615977 -21.95455741 27.5356904 -18.6875 23.25 C-14.23790308 17.4842131 -9.58736495 11.92666565 -4.7956543 6.44238281 C-2.11220107 3.42095269 -2.11220107 3.42095269 0 0 Z " fill="#FFFFFF" transform="translate(39,21)"/>
<path d="M0 0 C1.65 0 3.3 0 5 0 C5.3717334 0.71841064 5.7434668 1.43682129 6.12646484 2.17700195 C7.24134151 4.33099864 8.35679065 6.48469906 9.47265625 8.63818359 C10.74634942 11.09667884 12.0167801 13.55682424 13.28515625 16.01806641 C16.20003519 21.66519333 19.13565488 27.29395551 22.2265625 32.84765625 C22.93546631 34.13579224 22.93546631 34.13579224 23.65869141 35.44995117 C24.53409797 37.03266203 25.42382977 38.60755778 26.32958984 40.1730957 C27.5 42.3046875 27.5 42.3046875 29 46 C28.09375 48.73095703 28.09375 48.73095703 27 51 C20.05829978 51.05058729 13.11664685 51.08568579 6.17480469 51.10986328 C3.81183089 51.11993924 1.44886961 51.13360029 -0.9140625 51.15087891 C-4.30471888 51.17505724 -7.69521084 51.18646699 -11.0859375 51.1953125 C-12.14743011 51.20563507 -13.20892273 51.21595764 -14.30258179 51.22659302 C-15.28344757 51.22674408 -16.26431335 51.22689514 -17.27490234 51.22705078 C-18.57396011 51.23371262 -18.57396011 51.23371262 -19.89926147 51.24050903 C-22 51 -22 51 -24 49 C-23.67546252 44.46852491 -22.25145159 41.0603443 -20.15625 37.0703125 C-19.57311035 35.95180908 -18.9899707 34.83330566 -18.38916016 33.6809082 C-17.75978761 32.49542091 -17.13006143 31.31012131 -16.5 30.125 C-15.86330494 28.91324855 -15.22707642 27.70125186 -14.59130859 26.48901367 C-9.8956543 17.56484382 -5.05208273 8.72753974 0 0 Z M2 7 C-3.43594874 16.57652246 -8.70252314 26.2103993 -13.625 36.0625 C-14.06247559 36.93680664 -14.49995117 37.81111328 -14.95068359 38.71191406 C-17.00979672 42.20189893 -17.00979672 42.20189893 -18 46 C-4.47 46 9.06 46 23 46 C18.22932974 36.45865948 13.45528164 26.94284537 8.5 17.5 C7.695625 15.96279297 7.695625 15.96279297 6.875 14.39453125 C5.58463065 11.92900409 4.29297278 9.46416255 3 7 C2.67 7 2.34 7 2 7 Z " fill="#FFFFFF" transform="translate(257,22)"/>
<path d="M0 0 C4.29 0 8.58 0 13 0 C13 17.16 13 34.32 13 52 C8.71 52 4.42 52 0 52 C0 34.84 0 17.68 0 0 Z " fill="#FFFFFF" transform="translate(340,21)"/>
<path d="M0 0 C4.62 0 9.24 0 14 0 C14.09938127 4.85630418 14.17170794 9.71200765 14.21972656 14.5690918 C14.23975797 16.21893637 14.26699142 17.8687107 14.30175781 19.51831055 C14.35065357 21.89910274 14.3730528 24.278951 14.390625 26.66015625 C14.41127014 27.38960953 14.43191528 28.11906281 14.45318604 28.87062073 C14.45554427 34.33602037 13.13675251 37.50481415 10 42 C6.25592252 44.41805004 4.49512007 45 0 45 C0 30.15 0 15.3 0 0 Z " fill="#FFFFFF" transform="translate(460,21)"/>
<path d="M0 0 C1.50046875 0.00386719 1.50046875 0.00386719 3.03125 0.0078125 C4.0315625 0.00523438 5.031875 0.00265625 6.0625 0 C8.53125 0.1328125 8.53125 0.1328125 9.53125 1.1328125 C9.61986992 3.9444463 9.64647355 6.73139505 9.62890625 9.54296875 C9.6274913 10.38500351 9.62607635 11.22703827 9.62461853 12.09458923 C9.61900263 14.79486585 9.60644748 17.49506078 9.59375 20.1953125 C9.58873705 22.02148318 9.58417379 23.84765516 9.58007812 25.67382812 C9.56902804 30.16018792 9.55175279 34.64648634 9.53125 39.1328125 C5.24125 39.1328125 0.95125 39.1328125 -3.46875 39.1328125 C-3.49339849 33.73934262 -3.51158531 28.34590525 -3.52368164 22.95239258 C-3.52872231 21.11612375 -3.53555477 19.27985896 -3.54418945 17.44360352 C-3.55626672 14.81004849 -3.56198081 12.17654634 -3.56640625 9.54296875 C-3.57156754 8.71692642 -3.57672882 7.89088409 -3.58204651 7.03981018 C-3.58224205 5.07044882 -3.53079152 3.10119636 -3.46875 1.1328125 C-2.46875 0.1328125 -2.46875 0.1328125 0 0 Z " fill="#FFFFFF" transform="translate(378.46875,33.8671875)"/>
<path d="M0 0 C13.86 0 27.72 0 42 0 C42 3.63 42 7.26 42 11 C28.14 11 14.28 11 0 11 C0 7.37 0 3.74 0 0 Z " fill="#FFFFFF" transform="translate(361,21)"/>
<path d="M0 0 C0 3.96 0 7.92 0 12 C-12.87 12 -25.74 12 -39 12 C-39 8.37 -39 4.74 -39 1 C-25.98795939 0.3246763 -13.03021675 -0.15553309 0 0 Z " fill="#FFFFFF" transform="translate(97,20)"/>
<path d="M0 0 C0 3.63 0 7.26 0 11 C-12.87 11 -25.74 11 -39 11 C-39 7.37 -39 3.74 -39 0 C-33.76743778 -0.16743288 -28.53472773 -0.328011 -23.30175781 -0.48217773 C-21.52077543 -0.5356202 -19.73984869 -0.59095129 -17.95898438 -0.64819336 C-15.40246583 -0.73004181 -12.84582555 -0.8051453 -10.2890625 -0.87890625 C-9.49005524 -0.90594131 -8.69104797 -0.93297638 -7.86782837 -0.96083069 C-2.22774341 -1.11387171 -2.22774341 -1.11387171 0 0 Z " fill="#FFFFFF" transform="translate(97,41)"/>
<path d="M0 0 C12.87 0 25.74 0 39 0 C39 3.63 39 7.26 39 11 C26.13 11 13.26 11 0 11 C0 7.37 0 3.74 0 0 Z " fill="#FFFFFF" transform="translate(58,61)"/>
<path d="M0 0 C4.56535221 0.47970839 4.56535221 0.47970839 6.4855957 2.77832031 C6.87835693 3.53725586 7.27111816 4.29619141 7.67578125 5.078125 C8.11083984 5.90957031 8.54589844 6.74101563 8.99414062 7.59765625 C9.42919922 8.47292969 9.86425781 9.34820312 10.3125 10.25 C10.9940918 11.53970703 10.9940918 11.53970703 11.68945312 12.85546875 C13.89232057 17.155201 15.27937396 20.08518818 15 25 C11.11308052 26.94345974 6.27485419 26.18480803 2 26.1875 C0.97648437 26.19974609 -0.04703125 26.21199219 -1.1015625 26.22460938 C-2.56722656 26.22750977 -2.56722656 26.22750977 -4.0625 26.23046875 C-4.96097656 26.23457764 -5.85945312 26.23868652 -6.78515625 26.24291992 C-9 26 -9 26 -11 24 C-10.63836638 20.36350966 -9.43136448 17.54950099 -7.71484375 14.35546875 C-7.04291992 13.09379883 -7.04291992 13.09379883 -6.35742188 11.80664062 C-5.88884766 10.94232422 -5.42027344 10.07800781 -4.9375 9.1875 C-4.46505859 8.30384766 -3.99261719 7.42019531 -3.50585938 6.50976562 C-2.34296716 4.33668422 -1.17421625 2.16697716 0 0 Z M2 6 C0.82823482 8.12232979 -0.33754785 10.24757791 -1.5 12.375 C-1.83386719 12.97828125 -2.16773438 13.5815625 -2.51171875 14.203125 C-4.38773938 17.41414777 -4.38773938 17.41414777 -5 21 C-0.05 21 4.9 21 10 21 C7.69 16.05 5.38 11.1 3 6 C2.67 6 2.34 6 2 6 Z " fill="#EC3727" transform="translate(257,39)"/>
<path d="M0 0 C0.02686553 1.97909398 0.04633375 3.95828971 0.0625 5.9375 C0.07410156 7.03964844 0.08570313 8.14179687 0.09765625 9.27734375 C0 12 0 12 -1 13 C-2.99964982 13.08758003 -5.0023611 13.10696576 -7.00390625 13.09765625 C-8.21884766 13.09443359 -9.43378906 13.09121094 -10.68554688 13.08789062 C-11.96494141 13.07951172 -13.24433594 13.07113281 -14.5625 13.0625 C-15.84576172 13.05798828 -17.12902344 13.05347656 -18.45117188 13.04882812 C-21.63416022 13.03699545 -24.81705762 13.02051068 -28 13 C-27.6918335 12.38866211 -27.38366699 11.77732422 -27.06616211 11.14746094 C-26.32759935 9.65984976 -25.62129579 8.15595076 -24.94140625 6.640625 C-19.38564805 -2.99145438 -9.76738322 -0.79036767 0 0 Z " fill="#ED3828" transform="translate(494,60)"/>
<path d="M0 0 C8.91 0 17.82 0 27 0 C26 7 26 7 23.5859375 9.91796875 C19.31885762 13.03347268 14.69422633 12.54752119 9.625 12.3125 C8.69816406 12.28994141 7.77132813 12.26738281 6.81640625 12.24414062 C4.54356867 12.18556234 2.27156925 12.09589176 0 12 C0 8.04 0 4.08 0 0 Z " fill="#ED3828" transform="translate(7,20)"/>
<path d="M0 0 C0.67954949 4.18025901 0.95589949 7.85087951 0 12 C-3.36065144 15.32754157 -8.07095807 19 -13 19 C-13.67954949 14.81974099 -13.95589949 11.14912049 -13 7 C-9.63934856 3.67245843 -4.92904193 0 0 0 Z " fill="#ED3828" transform="translate(353,0)"/>
<path d="M0 0 C0.68578125 -0.02900391 1.3715625 -0.05800781 2.078125 -0.08789062 C5.3044719 -0.12869073 7.13281748 -0.12684384 9.58984375 2.06640625 C11.23393624 5.63377674 10.81965332 8.41943352 10.625 12.3125 C9.305 12.3125 7.985 12.3125 6.625 12.3125 C6.295 9.6725 5.965 7.0325 5.625 4.3125 C4.635 4.3125 3.645 4.3125 2.625 4.3125 C2.625 7.2825 2.625 10.2525 2.625 13.3125 C1.635 13.3125 0.645 13.3125 -0.375 13.3125 C-0.375 10.3425 -0.375 7.3725 -0.375 4.3125 C-1.695 4.3125 -3.015 4.3125 -4.375 4.3125 C-4.375 6.9525 -4.375 9.5925 -4.375 12.3125 C-5.695 12.3125 -7.015 12.3125 -8.375 12.3125 C-8.40187279 10.50007948 -8.42133715 8.68754767 -8.4375 6.875 C-8.44910156 5.86566406 -8.46070313 4.85632813 -8.47265625 3.81640625 C-8.27295501 -1.30393352 -4.11661269 0.05738772 0 0 Z " fill="#FFFFFF" transform="translate(168.375,88.6875)"/>
<path d="M0 0 C3.817383 0.06146055 3.817383 0.06146055 6.0625 1.4375 C7.88094738 4.53955729 8.44070867 6.98716531 7.5625 10.5 C6.125 12.25 6.125 12.25 3 13 C1.576875 13.12375 1.576875 13.12375 0.125 13.25 C-0.205 14.9 -0.535 16.55 -0.875 18.25 C-2.195 17.92 -3.515 17.59 -4.875 17.25 C-4.90184679 14.60409986 -4.92176357 11.95846904 -4.9375 9.3125 C-4.94587891 8.55775391 -4.95425781 7.80300781 -4.96289062 7.02539062 C-4.97152441 5.10005687 -4.92724333 3.17464419 -4.875 1.25 C-3.875 0.25 -3.875 0.25 0 0 Z M1.125 3.25 C0.135 3.745 0.135 3.745 -0.875 4.25 C-0.875 5.9 -0.875 7.55 -0.875 9.25 C0.115 9.58 1.105 9.91 2.125 10.25 C2.785 9.92 3.445 9.59 4.125 9.25 C4.125 7.6 4.125 5.95 4.125 4.25 C3.135 3.92 2.145 3.59 1.125 3.25 Z " fill="#FFFFFF" transform="translate(90.875,88.75)"/>
<path d="M0 0 C0 5.94 0 11.88 0 18 C-0.99 18 -1.98 18 -3 18 C-3 16.02 -3 14.04 -3 12 C-3.7425 12.2475 -4.485 12.495 -5.25 12.75 C-8 13 -8 13 -10.375 11.5 C-12 9 -12 9 -11.9375 5.375 C-10.05985738 -1.38451343 -6.98514563 0 0 0 Z M-8 4 C-8.33 4.99 -8.66 5.98 -9 7 C-8.67 7.66 -8.34 8.32 -8 9 C-6.35 8.67 -4.7 8.34 -3 8 C-3.33 6.68 -3.66 5.36 -4 4 C-5.32 4 -6.64 4 -8 4 Z " fill="#FFFFFF" transform="translate(319,89)"/>
<path d="M0 0 C1.32 0 2.64 0 4 0 C4 5.28 4 10.56 4 16 C-4 16 -4 16 -6.5 14.9375 C-8 13 -8 13 -8.5 9.5 C-8 6 -8 6 -6.1875 4.0625 C-4 3 -4 3 -1 3 C-0.67 2.01 -0.34 1.02 0 0 Z M-3 6 C-3.66 6.66 -4.32 7.32 -5 8 C-4.83333333 10.08333333 -4.83333333 10.08333333 -4 12 C-3.34 12.33 -2.68 12.66 -2 13 C-1.34 12.67 -0.68 12.34 0 12 C0 10.35 0 8.7 0 7 C-0.99 6.67 -1.98 6.34 -3 6 Z " fill="#FFFFFF" transform="translate(373,86)"/>
<path d="M0 0 C2.97 0 5.94 0 9 0 C9 0.99 9 1.98 9 3 C7.35 3 5.7 3 4 3 C4 3.66 4 4.32 4 5 C5.65 5.33 7.3 5.66 9 6 C8.67 6.99 8.34 7.98 8 9 C6.68 9 5.36 9 4 9 C4 9.66 4 10.32 4 11 C5.65 11 7.3 11 9 11 C9 12.32 9 13.64 9 15 C2.84765625 15.09765625 2.84765625 15.09765625 1 15 C0 14 0 14 -0.09765625 10.83984375 C-0.08025391 8.90818359 -0.08025391 8.90818359 -0.0625 6.9375 C-0.05347656 5.64714844 -0.04445313 4.35679688 -0.03515625 3.02734375 C-0.02355469 2.02832031 -0.01195313 1.02929688 0 0 Z " fill="#FFFFFF" transform="translate(67,87)"/>
<path d="M0 0 C2 2 2 2 2.3125 5.4375 C2 9 2 9 0.875 11 C-1.98873147 12.52732345 -3.95300191 11.84278671 -7 11 C-9 9 -9 9 -9.375 5.5625 C-9 2 -9 2 -7.3125 0 C-4.39120636 -1.26326211 -2.98201353 -1.02016252 0 0 Z M-4 2 C-4.66 2.66 -5.32 3.32 -6 4 C-4.35 4 -2.7 4 -1 4 C-1.99 3.34 -2.98 2.68 -4 2 Z M-6 7 C-4.515 7.99 -4.515 7.99 -3 9 C-2.34 8.34 -1.68 7.68 -1 7 C-2.65 7 -4.3 7 -6 7 Z " fill="#FFFFFF" transform="translate(198,90)"/>
<path d="M0 0 C2.9375 0.75 2.9375 0.75 4.9375 2.75 C5.3125 6.1875 5.3125 6.1875 4.9375 9.75 C3.3125 11.75 3.3125 11.75 0.9375 12.75 C-2.1875 12.625 -2.1875 12.625 -5.0625 11.75 C-7.0625 8.75 -7.0625 8.75 -6.875 5.1875 C-5.81721331 0.71224863 -4.63605151 -0.37845318 0 0 Z M-3.0625 3.75 C-3.0625 5.4 -3.0625 7.05 -3.0625 8.75 C-1.4125 8.42 0.2375 8.09 1.9375 7.75 C1.6075 6.43 1.2775 5.11 0.9375 3.75 C-0.3825 3.75 -1.7025 3.75 -3.0625 3.75 Z " fill="#FFFFFF" transform="translate(231.0625,89.25)"/>
<path d="M0 0 C2.9375 0.75 2.9375 0.75 4.9375 2.75 C5.3125 6.1875 5.3125 6.1875 4.9375 9.75 C3.3125 11.75 3.3125 11.75 0.9375 12.75 C-2.1875 12.625 -2.1875 12.625 -5.0625 11.75 C-7.0625 8.75 -7.0625 8.75 -6.875 5.1875 C-5.81721331 0.71224863 -4.63605151 -0.37845318 0 0 Z M-3.0625 3.75 C-3.0625 5.4 -3.0625 7.05 -3.0625 8.75 C-1.4125 8.42 0.2375 8.09 1.9375 7.75 C1.6075 6.43 1.2775 5.11 0.9375 3.75 C-0.3825 3.75 -1.7025 3.75 -3.0625 3.75 Z " fill="#FFFFFF" transform="translate(145.0625,89.25)"/>
<path d="M0 0 C0.99 0 1.98 0 3 0 C3 2.97 3 5.94 3 9 C3.99 9 4.98 9 6 9 C6.33 6.03 6.66 3.06 7 0 C8.32 0.33 9.64 0.66 11 1 C11 4.63 11 8.26 11 12 C6.66473162 12.86705368 5.00869538 13.11352649 1 12 C0 11 0 11 -0.09765625 8.49609375 C-0.08605469 7.48675781 -0.07445312 6.47742188 -0.0625 5.4375 C-0.05347656 4.42558594 -0.04445313 3.41367188 -0.03515625 2.37109375 C-0.02355469 1.58863281 -0.01195312 0.80617188 0 0 Z " fill="#FFFFFF" transform="translate(330,89)"/>
<path d="M0 0 C1.921875 0.37109375 1.921875 0.37109375 4 1 C5.25 3.0625 5.25 3.0625 6 5 C6.433125 4.175 6.86625 3.35 7.3125 2.5 C7.869375 1.675 8.42625 0.85 9 0 C9.99 0 10.98 0 12 0 C11.44380331 4.6889493 10.11817327 8.19924267 7.9375 12.375 C7.38964844 13.43460938 6.84179688 14.49421875 6.27734375 15.5859375 C5.85582031 16.38257812 5.43429687 17.17921875 5 18 C4.34 18 3.68 18 3 18 C3.061875 16.700625 3.12375 15.40125 3.1875 14.0625 C3.21187142 8.94450211 1.87433898 4.71931779 0 0 Z " fill="#FFFFFF" transform="translate(416,89)"/>
<path d="M0 0 C0 2.64 0 5.28 0 8 C-0.33 8 -0.66 8 -1 8 C-1.33 10.97 -1.66 13.94 -2 17 C-3.32 16.67 -4.64 16.34 -6 16 C-6.33 12.04 -6.66 8.08 -7 4 C-6.34 4 -5.68 4 -5 4 C-5 3.01 -5 2.02 -5 1 C-3 0 -3 0 0 0 Z " fill="#FFFFFF" transform="translate(252,85)"/>
<path d="M0 0 C0.99 0 1.98 0 3 0 C3 0.66 3 1.32 3 2 C3.99 2 4.98 2 6 2 C5.67 3.32 5.34 4.64 5 6 C4.67 6 4.34 6 4 6 C3.67 7.65 3.34 9.3 3 11 C3.99 11 4.98 11 6 11 C6 12.32 6 13.64 6 15 C3.03 14.505 3.03 14.505 0 14 C0 11.03 0 8.06 0 5 C-0.66 5 -1.32 5 -2 5 C-1.34 3.35 -0.68 1.7 0 0 Z " fill="#FFFFFF" transform="translate(402,87)"/>
<path d="M0 0 C0.99 0 1.98 0 3 0 C3 0.66 3 1.32 3 2 C3.99 2 4.98 2 6 2 C6 3.32 6 4.64 6 6 C5.34 6 4.68 6 4 6 C3.67 7.65 3.34 9.3 3 11 C3.99 11 4.98 11 6 11 C6 12.32 6 13.64 6 15 C1.125 14.125 1.125 14.125 0 13 C-0.26087055 11.3826026 -0.45964436 9.75493414 -0.625 8.125 C-0.72039062 7.24070312 -0.81578125 6.35640625 -0.9140625 5.4453125 C-1 3 -1 3 0 0 Z " fill="#FFFFFF" transform="translate(123,87)"/>
<path d="M0 0 C0.99 0 1.98 0 3 0 C3 3.63 3 7.26 3 11 C4.65 11 6.3 11 8 11 C8 12.32 8 13.64 8 15 C5.36 15 2.72 15 0 15 C0 10.05 0 5.1 0 0 Z " fill="#FFFFFF" transform="translate(276,87)"/>
<path d="M0 0 C0.99 0.33 1.98 0.66 3 1 C3 5.95 3 10.9 3 16 C1.68 16.33 0.36 16.66 -1 17 C-1.02684679 14.35409986 -1.04676357 11.70846904 -1.0625 9.0625 C-1.07087891 8.30775391 -1.07925781 7.55300781 -1.08789062 6.77539062 C-1.09652441 4.85005687 -1.05224333 2.92464419 -1 1 C-0.67 0.67 -0.34 0.34 0 0 Z " fill="#FFFFFF" transform="translate(352,85)"/>
<path d="M0 0 C0.99 0.33 1.98 0.66 3 1 C3 5.95 3 10.9 3 16 C1.68 16 0.36 16 -1 16 C-1.02685095 13.52076199 -1.04676547 11.0418116 -1.0625 8.5625 C-1.07506836 7.50192383 -1.07506836 7.50192383 -1.08789062 6.41992188 C-1.09653588 4.61306441 -1.05220011 2.80612397 -1 1 C-0.67 0.67 -0.34 0.34 0 0 Z " fill="#FFFFFF" transform="translate(388,85)"/>
<path d="M0 0 C0.99 0.33 1.98 0.66 3 1 C3 6.28 3 11.56 3 17 C2.01 17 1.02 17 0 17 C-0.19386492 14.35448944 -0.38038267 11.70882217 -0.5625 9.0625 C-0.61857422 8.30775391 -0.67464844 7.55300781 -0.73242188 6.77539062 C-0.86176157 4.85254042 -0.93516912 2.92610452 -1 1 C-0.67 0.67 -0.34 0.34 0 0 Z " fill="#FFFFFF" transform="translate(294,85)"/>
<path d="M0 0 C0.99 0.33 1.98 0.66 3 1 C3 6.28 3 11.56 3 17 C2.01 17 1.02 17 0 17 C-0.19386492 14.35448944 -0.38038267 11.70882217 -0.5625 9.0625 C-0.61857422 8.30775391 -0.67464844 7.55300781 -0.73242188 6.77539062 C-0.86176157 4.85254042 -0.93516912 2.92610452 -1 1 C-0.67 0.67 -0.34 0.34 0 0 Z " fill="#FFFFFF" transform="translate(109,85)"/>
</svg>
